{
  "accessors": [
    {
      "bufferView": 2,
      "componentType": 5126,
      "count": 65532,
      "max": [
        0.9082345366477966,
        1.009039282798767,
        1.473738431930542
      ],
      "min": [
        -0.9082345366477966,
        -0.9082345366477966,
        -0.4206288456916809
      ],
      "type": "VEC3"
    },
    {
      "bufferView": 2,
      "byteOffset": 786384,
      "componentType": 5126,
      "count": 65532,
      "max": [
        0.9830198287963867,
        0.9830197691917419,
        0.9785110354423523
      ],
      "min": [
        -0.9830198287963867,
        -0.9999999403953552,
        -0.47345930337905884
      ],
      "type": "VEC3"
    },
    {
      "bufferView": 1,
      "componentType": 5126,
      "count": 65532,
      "max": [
        1.0000001192092896,
        1.0000001192092896
      ],
      "min": [
        8.121132282212784e-07,
        0.5
      ],
      "type": "VEC2"
    },
    {
      "bufferView": 0,
      "componentType": 5125,
      "count": 374976,
      "type": "SCALAR"
    },
    {
      "bufferView": 2,
      "byteOffset": 1572768,
      "componentType": 5126,
      "count": 65532,
      "max": [
        1.009039282798767,
        1.0082614421844482,
        1.4255787134170532
      ],
      "min": [
        -0.9524741768836975,
        -1.009039282798767,
        0.6962205767631531
      ],
      "type": "VEC3"
    },
    {
      "bufferView": 2,
      "byteOffset": 2359152,
      "componentType": 5126,
      "count": 65532,
      "max": [
        0.987454891204834,
        0.9999999403953552,
        0.18350178003311157
      ],
      "min": [
        -1.0,
        -0.999229371547699,
        -0.4093753397464752
      ],
      "type": "VEC3"
    },
    {
      "bufferView": 1,
      "byteOffset": 524256,
      "componentType": 5126,
      "count": 65532,
      "max": [
        0.9978126287460327,
        0.9843751788139343
      ],
      "min": [
        0.005000812001526356,
        0.7968749403953552
      ],
      "type": "VEC2"
    },
    {
      "bufferView": 0,
      "byteOffset": 1499904,
      "componentType": 5125,
      "count": 379134,
      "type": "SCALAR"
    },
    {
      "bufferView": 2,
      "byteOffset": 3145536,
      "componentType": 5126,
      "count": 65532,
      "max": [
        1.0004935264587402,
        1.0480808019638062,
        1.4900155067443848
      ],
      "min": [
        -1.009039282798767,
        -1.0004935264587402,
        -0.45115312933921814
      ],
      "type": "VEC3"
    },
    {
      "bufferView": 2,
      "byteOffset": 3931920,
      "componentType": 5126,
      "count": 65532,
      "max": [
        1.0,
        0.9997080564498901,
        0.9999785423278809
      ],
      "min": [
        -0.9884793758392334,
        -0.9998766183853149,
        -0.9776060581207275
      ],
      "type": "VEC3"
    },
    {
      "bufferView": 1,
      "byteOffset": 1048512,
      "componentType": 5126,
      "count": 65532,
      "max": [
        1.0000001192092896,
        1.0000001192092896
      ],
      "min": [
        8.121131713778595e-07,
        0.5
      ],
      "type": "VEC2"
    },
    {
      "bufferView": 0,
      "byteOffset": 3016440,
      "componentType": 5125,
      "count": 360408,
      "type": "SCALAR"
    },
    {
      "bufferView": 2,
      "byteOffset": 4718304,
      "componentType": 5126,
      "count": 65532,
      "max": [
        1.0480808019638062,
        1.0475637912750244,
        1.4893995523452759
      ],
      "min": [
        -0.6630208492279053,
        -0.8914843797683716,
        -0.3683261275291443
      ],
      "type": "VEC3"
    },
    {
      "bufferView": 2,
      "byteOffset": 5504688,
      "componentType": 5126,
      "count": 65532,
      "max": [
        0.9997076988220215,
        0.9992138743400574,
        0.9666833877563477
      ],
      "min": [
        -0.9068034291267395,
        -0.9068036675453186,
        -0.7178388833999634
      ],
      "type": "VEC3"
    },
    {
      "bufferView": 1,
      "byteOffset": 1572768,
      "componentType": 5126,
      "count": 65532,
      "max": [
        1.0000001192092896,
        0.9982555508613586
      ],
      "min": [
        8.121132282212784e-07,
        0.5312499403953552
      ],
      "type": "VEC2"
    },
    {
      "bufferView": 0,
      "byteOffset": 4458072,
      "componentType": 5125,
      "count": 370449,
      "type": "SCALAR"
    },
    {
      "bufferView": 2,
      "byteOffset": 6291072,
      "componentType": 5126,
      "count": 65532,
      "max": [
        0.5943810343742371,
        0.9914976358413696,
        1.4893995523452759
      ],
      "min": [
        -0.9919869303703308,
        -1.0480808019638062,
        -0.24978011846542358
      ],
      "type": "VEC3"
    },
    {
      "bufferView": 2,
      "byteOffset": 7077456,
      "componentType": 5126,
      "count": 65532,
      "max": [
        0.5530849099159241,
        0.9869636297225952,
        0.9666838645935059
      ],
      "min": [
        -0.9874511361122131,
        -0.9997076988220215,
        -0.4222153425216675
      ],
      "type": "VEC3"
    },
    {
      "bufferView": 1,
      "byteOffset": 2097024,
      "componentType": 5126,
      "count": 65532,
      "max": [
        0.6000004410743713,
        0.9982555508613586
      ],
      "min": [
        0.0050008115358650684,
        0.5624999403953552
      ],
      "type": "VEC2"
    },
    {
      "bufferView": 0,
      "byteOffset": 5939868,
      "componentType": 5125,
      "count": 378378,
      "type": "SCALAR"
    },
    {
      "bufferView": 2,
      "byteOffset": 7863840,
      "componentType": 5126,
      "count": 65532,
      "max": [
        1.0355712175369263,
        1.0480808019638062,
        1.4900155067443848
      ],
      "min": [
        -1.0480808019638062,
        -1.0355193614959717,
        -0.24978011846542358
      ],
      "type": "VEC3"
    },
    {
      "bufferView": 2,
      "byteOffset": 8650224,
      "componentType": 5126,
      "count": 65532,
      "max": [
        0.9976344108581543,
        0.9997080564498901,
        0.99997878074646
      ],
      "min": [
        -0.9997076988220215,
        -0.9999999403953552,
        -0.47345662117004395
      ],
      "type": "VEC3"
    },
    {
      "bufferView": 1,
      "byteOffset": 2621280,
      "componentType": 5126,
      "count": 65532,
      "max": [
        0.9981251358985901,
        1.0000001192092896
      ],
      "min": [
        8.121131713778595e-07,
        0.5625
      ],
      "type": "VEC2"
    },
    {
      "bufferView": 0,
      "byteOffset": 7453380,
      "componentType": 5125,
      "count": 352431,
      "type": "SCALAR"
    },
    {
      "bufferView": 2,
      "byteOffset": 9436608,
      "componentType": 5126,
      "count": 18636,
      "max": [
        0.9968685507774353,
        1.0475636720657349,
        1.4900155067443848
      ],
      "min": [
        -0.9841102361679077,
        -0.996799647808075,
        -0.4991174638271332
      ],
      "type": "VEC3"
    },
    {
      "bufferView": 2,
      "byteOffset": 9660240,
      "componentType": 5126,
      "count": 18636,
      "max": [
        0.9976344108581543,
        0.9992141723632813,
        1.0
      ],
      "min": [
        -0.9976344108581543,
        -0.9997225999832153,
        -1.0
      ],
      "type": "VEC3"
    },
    {
      "bufferView": 1,
      "byteOffset": 3145536,
      "componentType": 5126,
      "count": 18636,
      "max": [
        1.0000001192092896,
        1.0000001192092896
      ],
      "min": [
        0.0012508123181760311,
        0.010000006295740604
      ],
      "type": "VEC2"
    },
    {
      "bufferView": 0,
      "byteOffset": 8863104,
      "componentType": 5125,
      "count": 87456,
      "type": "SCALAR"
    },
    {
      "bufferView": 2,
      "byteOffset": 9883872,
      "componentType": 5126,
      "count": 1200,
      "max": [
        1.0,
        1.0,
        0.5
      ],
      "min": [
        -1.0,
        -1.0,
        -0.5
      ],
      "type": "VEC3"
    },
    {
      "bufferView": 2,
      "byteOffset": 9898272,
      "componentType": 5126,
      "count": 1200,
      "max": [
        0.9998766779899597,
        0.9998766779899597,
        1.0
      ],
      "min": [
        -0.9998766779899597,
        -0.9998766779899597,
        -1.0
      ],
      "type": "VEC3"
    },
    {
      "bufferView": 3,
      "componentType": 5126,
      "count": 1200,
      "max": [
        1.0,
        0.9998766183853149,
        9.962336378066539e-08,
        1.0
      ],
      "min": [
        -0.9998767375946045,
        -0.9998766183853149,
        0.0,
        -1.0
      ],
      "type": "VEC4"
    },
    {
      "bufferView": 1,
      "byteOffset": 3294624,
      "componentType": 5126,
      "count": 1200,
      "max": [
        1.0,
        1.0
      ],
      "min": [
        8.121132850646973e-07,
        0.01000000536441803
      ],
      "type": "VEC2"
    },
    {
      "bufferView": 1,
      "byteOffset": 3304224,
      "componentType": 5126,
      "count": 1200,
      "max": [
        1.0,
        1.0
      ],
      "min": [
        8.121132850646973e-07,
        0.01000000536441803
      ],
      "type": "VEC2"
    },
    {
      "bufferView": 0,
      "byteOffset": 9212928,
      "componentType": 5125,
      "count": 2388,
      "type": "SCALAR"
    },
    {
      "bufferView": 2,
      "byteOffset": 9912672,
      "componentType": 5126,
      "count": 2652,
      "max": [
        9.437237480369731e-08,
        1.25,
        0.24950668215751648
      ],
      "min": [
        -1.25,
        -1.25,
        -0.24950668215751648
      ],
      "type": "VEC3"
    },
    {
      "bufferView": 2,
      "byteOffset": 9944496,
      "componentType": 5126,
      "count": 2652,
      "max": [
        1.0,
        0.9995066523551941,
        0.9981047511100769
      ],
      "min": [
        -1.0,
        -0.9995066523551941,
        -0.9981047511100769
      ],
      "type": "VEC3"
    },
    {
      "bufferView": 1,
      "byteOffset": 3313824,
      "componentType": 5126,
      "count": 2652,
      "max": [
        1.0,
        1.0
      ],
      "min": [
        4.440892098500626e-16,
        4.440892098500626e-16
      ],
      "type": "VEC2"
    },
    {
      "bufferView": 0,
      "byteOffset": 9222480,
      "componentType": 5125,
      "count": 15000,
      "type": "SCALAR"
    },
    {
      "bufferView": 2,
      "byteOffset": 9976320,
      "componentType": 5126,
      "count": 2865,
      "max": [
        1.1844931840896606,
        1.1844960451126099,
        9.434427261352539
      ],
      "min": [
        -1.1844991445541382,
        -1.1844960451126099,
        1.9575419425964355
      ],
      "type": "VEC3"
    },
    {
      "bufferView": 2,
      "byteOffset": 10010700,
      "componentType": 5126,
      "count": 2865,
      "max": [
        1.0,
        1.0,
        0.9744377732276917
      ],
      "min": [
        -1.0,
        -1.0,
        -0.70710688829422
      ],
      "type": "VEC3"
    },
    {
      "bufferView": 1,
      "byteOffset": 3335040,
      "componentType": 5126,
      "count": 2865,
      "max": [
        1.0,
        1.0
      ],
      "min": [
        6.705522537231445e-07,
        0.01000000536441803
      ],
      "type": "VEC2"
    },
    {
      "bufferView": 0,
      "byteOffset": 9282480,
      "componentType": 5125,
      "count": 13188,
      "type": "SCALAR"
    }
  ],
  "asset": {
    "extras": {
      "author": "Mohamed Awadeen (https://sketchfab.com/Mohamed.Yahia.Awadeen)",
      "license": "CC-BY-4.0 (http://creativecommons.org/licenses/by/4.0/)",
      "source": "https://sketchfab.com/3d-models/coffee-cup-3f6f89080498447ea3dc156b2f363aea",
      "title": "Coffee cup"
    },
    "generator": "Sketchfab-12.67.0",
    "version": "2.0"
  },
  "bufferViews": [
    {
      "buffer": 0,
      "byteLength": 9335232,
      "name": "floatBufferViews",
      "target": 34963
    },
    {
      "buffer": 0,
      "byteLength": 3357960,
      "byteOffset": 9335232,
      "byteStride": 8,
      "name": "floatBufferViews",
      "target": 34962
    },
    {
      "buffer": 0,
      "byteLength": 10045080,
      "byteOffset": 12693192,
      "byteStride": 12,
      "name": "floatBufferViews",
      "target": 34962
    },
    {
      "buffer": 0,
      "byteLength": 19200,
      "byteOffset": 22738272,
      "byteStride": 16,
      "name": "floatBufferViews",
      "target": 34962
    }
  ],
  "buffers": [
    {
      "byteLength": 22757472,
      "uri": "scene.bin"
    }
  ],
  "images": [
    {
      "uri": "textures/coffee.001_baseColor.png"
    },
    {
      "uri": "textures/coffee.001_metallicRoughness.png"
    },
    {
      "uri": "textures/coffee.001_normal.png"
    }
  ],
  "materials": [
    {
      "doubleSided": true,
      "name": "cup.001",
      "pbrMetallicRoughness": {
        "baseColorFactor": [
          0.0,
          0.0,
          0.0,
          1.0
        ],
        "metallicFactor": 0.41518959247953885,
        "roughnessFactor": 0.0
      }
    },
    {
      "doubleSided": true,
      "name": "coffee.001",
      "normalTexture": {
        "index": 2
      },
      "pbrMetallicRoughness": {
        "baseColorTexture": {
          "index": 0
        },
        "metallicFactor": 0.05035480183390288,
        "metallicRoughnessTexture": {
          "index": 1
        },
        "roughnessFactor": 0.17169388991496035
      }
    }
  ],
  "meshes": [
    {
      "name": "Cylinder.026_cup.001_0",
      "primitives": [
        {
          "attributes": {
            "NORMAL": 1,
            "POSITION": 0,
            "TEXCOORD_0": 2
          },
          "indices": 3,
          "material": 0,
          "mode": 4
        }
      ]
    },
    {
      "name": "Cylinder.026_cup.001_0",
      "primitives": [
        {
          "attributes": {
            "NORMAL": 5,
            "POSITION": 4,
            "TEXCOORD_0": 6
          },
          "indices": 7,
          "material": 0,
          "mode": 4
        }
      ]
    },
    {
      "name": "Cylinder.026_cup.001_0",
      "primitives": [
        {
          "attributes": {
            "NORMAL": 9,
            "POSITION": 8,
            "TEXCOORD_0": 10
          },
          "indices": 11,
          "material": 0,
          "mode": 4
        }
      ]
    },
    {
      "name": "Cylinder.026_cup.001_0",
      "primitives": [
        {
          "attributes": {
            "NORMAL": 13,
            "POSITION": 12,
            "TEXCOORD_0": 14
          },
          "indices": 15,
          "material": 0,
          "mode": 4
        }
      ]
    },
    {
      "name": "Cylinder.026_cup.001_0",
      "primitives": [
        {
          "attributes": {
            "NORMAL": 17,
            "POSITION": 16,
            "TEXCOORD_0": 18
          },
          "indices": 19,
          "material": 0,
          "mode": 4
        }
      ]
    },
    {
      "name": "Cylinder.026_cup.001_0",
      "primitives": [
        {
          "attributes": {
            "NORMAL": 21,
            "POSITION": 20,
            "TEXCOORD_0": 22
          },
          "indices": 23,
          "material": 0,
          "mode": 4
        }
      ]
    },
    {
      "name": "Cylinder.026_cup.001_0",
      "primitives": [
        {
          "attributes": {
            "NORMAL": 25,
            "POSITION": 24,
            "TEXCOORD_0": 26
          },
          "indices": 27,
          "material": 0,
          "mode": 4
        }
      ]
    },
    {
      "name": "foam.001_coffee.001_0",
      "primitives": [
        {
          "attributes": {
            "NORMAL": 29,
            "POSITION": 28,
            "TANGENT": 30,
            "TEXCOORD_0": 31,
            "TEXCOORD_1": 32
          },
          "indices": 33,
          "material": 1,
          "mode": 4
        }
      ]
    },
    {
      "name": "Torus.001_cup.001_0",
      "primitives": [
        {
          "attributes": {
            "NORMAL": 35,
            "POSITION": 34,
            "TEXCOORD_0": 36
          },
          "indices": 37,
          "material": 0,
          "mode": 4
        }
      ]
    },
    {
      "name": "Cylinder.027_cup.001_0",
      "primitives": [
        {
          "attributes": {
            "NORMAL": 39,
            "POSITION": 38,
            "TEXCOORD_0": 40
          },
          "indices": 41,
          "material": 0,
          "mode": 4
        }
      ]
    }
  ],
  "nodes": [
    {
      "children": [
        1
      ],
      "matrix": [
        1.0,
        0.0,
        0.0,
        0.0,
        0.0,
        2.220446049250313e-16,
        -1.0,
        0.0,
        0.0,
        1.0,
        2.220446049250313e-16,
        0.0,
        0.8100438117980957,
        1.0980656384163016e-07,
        -1.6335570762748827e-07,
        1.0
      ],
      "name": "Sketchfab_model"
    },
    {
      "children": [
        2
      ],
      "matrix": [
        0.009999999776482582,
        0.0,
        0.0,
        0.0,
        0.0,
        0.0,
        0.009999999776482582,
        0.0,
        0.0,
        -0.009999999776482582,
        0.0,
        0.0,
        0.0,
        0.0,
        0.0,
        1.0
      ],
      "name": "f4355df555fa47e8a412e1aa59c48798.fbx"
    },
    {
      "children": [
        3,
        11,
        13,
        15
      ],
      "name": "RootNode"
    },
    {
      "children": [
        4,
        5,
        6,
        7,
        8,
        9,
        10
      ],
      "matrix": [
        1061.0545654296875,
        0.0,
        0.0,
        0.0,
        -0.0,
        -0.00017286773067160912,
        -1061.0545654296734,
        0.0,
        0.0,
        1061.0545654296734,
        -0.00017286773067160912,
        0.0,
        -184.66055297851563,
        640.0806274414063,
        -53.432472229003906,
        1.0
      ],
      "name": "Cylinder.026"
    },
    {
      "mesh": 0,
      "name": "Cylinder.026_cup.001_0"
    },
    {
      "mesh": 1,
      "name": "Cylinder.026_cup.001_0"
    },
    {
      "mesh": 2,
      "name": "Cylinder.026_cup.001_0"
    },
    {
      "mesh": 3,
      "name": "Cylinder.026_cup.001_0"
    },
    {
      "mesh": 4,
      "name": "Cylinder.026_cup.001_0"
    },
    {
      "mesh": 5,
      "name": "Cylinder.026_cup.001_0"
    },
    {
      "mesh": 6,
      "name": "Cylinder.026_cup.001_0"
    },
    {
      "children": [
        12
      ],
      "matrix": [
        1085.4982910156082,
        0.00016390568187124016,
        -9.489727456634878e-05,
        -0.0,
        -9.489724786272136e-05,
        -0.0001768501335126799,
        -1085.4982910156064,
        -0.0,
        2.4060225883948932e-06,
        -15.934366226195895,
        2.5960377712501522e-06,
        -0.0,
        -190.3456268310547,
        2140.830322265625,
        -53.432472229003906,
        1.0
      ],
      "name": "foam.001"
    },
    {
      "mesh": 7,
      "name": "foam.001_coffee.001_0"
    },
    {
      "children": [
        14
      ],
      "matrix": [
        502.6858851302529,
        152.0771670661307,
        9.839234123403213e-13,
        0.0,
        -152.07716706613056,
        502.6858851302525,
        2.2956622440954002e-05,
        0.0,
        6.647503465430617e-06,
        -2.1973099214271087e-05,
        525.1861572265619,
        0.0,
        -1068.048828125,
        1305.845947265625,
        -53.432472229003906,
        1.0
      ],
      "name": "Torus.001"
    },
    {
      "mesh": 8,
      "name": "Torus.001_cup.001_0"
    },
    {
      "children": [
        16
      ],
      "matrix": [
        980.8093872070313,
        0.0,
        0.0,
        0.0,
        -0.0,
        -0.0001597941317176554,
        -980.8093872070183,
        0.0,
        0.0,
        26.89937019348109,
        -4.382463667134377e-06,
        0.0,
        -160.93508911132813,
        -1.8277168273925781,
        -70.14727783203125,
        1.0
      ],
      "name": "Cylinder.027"
    },
    {
      "mesh": 9,
      "name": "Cylinder.027_cup.001_0"
    }
  ],
  "samplers": [
    {
      "magFilter": 9729,
      "minFilter": 9987,
      "wrapS": 10497,
      "wrapT": 10497
    }
  ],
  "scene": 0,
  "scenes": [
    {
      "name": "Sketchfab_Scene",
      "nodes": [
        0
      ]
    }
  ],
  "textures": [
    {
      "sampler": 0,
      "source": 0
    },
    {
      "sampler": 0,
      "source": 1
    },
    {
      "sampler": 0,
      "source": 2
    }
  ]
}
