{
  "accessors": [
    {
      "bufferView": 2,
      "componentType": 5126,
      "count": 65532,
      "max": [
        219.451416015625,
        -274.47528076171875,
        -191.49676513671875
      ],
      "min": [
        -528.79345703125,
        -1070.593505859375,
        -793.05712890625
      ],
      "type": "VEC3"
    },
    {
      "bufferView": 2,
      "byteOffset": 786384,
      "componentType": 5126,
      "count": 65532,
      "max": [
        0.9950783252716064,
        0.9383001923561096,
        0.9936956763267517
      ],
      "min": [
        -0.9990310668945313,
        -0.9903591871261597,
        -0.9998389482498169
      ],
      "type": "VEC3"
    },
    {
      "bufferView": 1,
      "componentType": 5126,
      "count": 65532,
      "max": [
        0.9137809872627258,
        0.9553589820861816
      ],
      "min": [
        0.008011000230908394,
        0.0019920000340789557
      ],
      "type": "VEC2"
    },
    {
      "bufferView": 0,
      "componentType": 5125,
      "count": 366267,
      "type": "SCALAR"
    },
    {
      "bufferView": 2,
      "byteOffset": 1572768,
      "componentType": 5126,
      "count": 65532,
      "max": [
        214.3717041015625,
        -201.859619140625,
        -154.11891174316406
      ],
      "min": [
        -514.2405395507813,
        -1070.6466064453125,
        -792.4549560546875
      ],
      "type": "VEC3"
    },
    {
      "bufferView": 2,
      "byteOffset": 2359152,
      "componentType": 5126,
      "count": 65532,
      "max": [
        0.999862790107727,
        0.9978014230728149,
        0.997361421585083
      ],
      "min": [
        -0.9999926686286926,
        -0.9993970990180969,
        -0.9999552369117737
      ],
      "type": "VEC3"
    },
    {
      "bufferView": 1,
      "byteOffset": 524256,
      "componentType": 5126,
      "count": 65532,
      "max": [
        0.9676499962806702,
        0.997996985912323
      ],
      "min": [
        0.001934999949298799,
        0.004693000111728907
      ],
      "type": "VEC2"
    },
    {
      "bufferView": 0,
      "byteOffset": 1465068,
      "componentType": 5125,
      "count": 344106,
      "type": "SCALAR"
    },
    {
      "bufferView": 2,
      "byteOffset": 3145536,
      "componentType": 5126,
      "count": 65532,
      "max": [
        155.5155029296875,
        -201.96832275390625,
        2.934251070022583
      ],
      "min": [
        -472.3018493652344,
        -953.958984375,
        -777.05908203125
      ],
      "type": "VEC3"
    },
    {
      "bufferView": 2,
      "byteOffset": 3931920,
      "componentType": 5126,
      "count": 65532,
      "max": [
        0.999997079372406,
        0.9998484253883362,
        0.9998919367790222
      ],
      "min": [
        -0.9999314546585083,
        -0.9999892115592957,
        -0.999833345413208
      ],
      "type": "VEC3"
    },
    {
      "bufferView": 1,
      "byteOffset": 1048512,
      "componentType": 5126,
      "count": 65532,
      "max": [
        0.9694390296936035,
        0.9932940006256104
      ],
      "min": [
        0.001934999949298799,
        0.003949000034481287
      ],
      "type": "VEC2"
    },
    {
      "bufferView": 0,
      "byteOffset": 2841492,
      "componentType": 5125,
      "count": 343416,
      "type": "SCALAR"
    },
    {
      "bufferView": 2,
      "byteOffset": 4718304,
      "componentType": 5126,
      "count": 65532,
      "max": [
        95.8427734375,
        -201.63531494140625,
        263.713134765625
      ],
      "min": [
        -522.1572265625,
        -1055.958984375,
        -753.5421142578125
      ],
      "type": "VEC3"
    },
    {
      "bufferView": 2,
      "byteOffset": 5504688,
      "componentType": 5126,
      "count": 65532,
      "max": [
        0.9982282519340515,
        0.999679446220398,
        0.9999947547912598
      ],
      "min": [
        -0.9997603893280029,
        -0.9930461645126343,
        -0.9998478889465332
      ],
      "type": "VEC3"
    },
    {
      "bufferView": 1,
      "byteOffset": 1572768,
      "componentType": 5126,
      "count": 65532,
      "max": [
        0.9495450258255005,
        0.9980069994926453
      ],
      "min": [
        0.001934999949298799,
        0.023207999765872955
      ],
      "type": "VEC2"
    },
    {
      "bufferView": 0,
      "byteOffset": 4215156,
      "componentType": 5125,
      "count": 345861,
      "type": "SCALAR"
    },
    {
      "bufferView": 2,
      "byteOffset": 6291072,
      "componentType": 5126,
      "count": 65532,
      "max": [
        141.8427734375,
        -271.273681640625,
        259.26416015625
      ],
      "min": [
        -488.1572265625,
        -999.958984375,
        -788.5658569335938
      ],
      "type": "VEC3"
    },
    {
      "bufferView": 2,
      "byteOffset": 7077456,
      "componentType": 5126,
      "count": 65532,
      "max": [
        0.9997804760932922,
        0.9992178082466125,
        1.0
      ],
      "min": [
        -0.9999999403953552,
        -0.9998371601104736,
        -0.933597981929779
      ],
      "type": "VEC3"
    },
    {
      "bufferView": 1,
      "byteOffset": 2097024,
      "componentType": 5126,
      "count": 65532,
      "max": [
        0.9694390296936035,
        0.9935060143470764
      ],
      "min": [
        0.029124999418854713,
        0.006839000154286623
      ],
      "type": "VEC2"
    },
    {
      "bufferView": 0,
      "byteOffset": 5598600,
      "componentType": 5125,
      "count": 341154,
      "type": "SCALAR"
    },
    {
      "bufferView": 2,
      "byteOffset": 7863840,
      "componentType": 5126,
      "count": 65532,
      "max": [
        153.17578125,
        -201.350830078125,
        262.97119140625
      ],
      "min": [
        -492.3736267089844,
        -1029.785888671875,
        -718.1534423828125
      ],
      "type": "VEC3"
    },
    {
      "bufferView": 2,
      "byteOffset": 8650224,
      "componentType": 5126,
      "count": 65532,
      "max": [
        0.9999751448631287,
        0.9992178082466125,
        0.9961166977882385
      ],
      "min": [
        -1.0,
        -0.997767448425293,
        -0.9784296751022339
      ],
      "type": "VEC3"
    },
    {
      "bufferView": 1,
      "byteOffset": 2621280,
      "componentType": 5126,
      "count": 65532,
      "max": [
        0.9694390296936035,
        0.9511610269546509
      ],
      "min": [
        0.001934999949298799,
        0.006965000182390213
      ],
      "type": "VEC2"
    },
    {
      "bufferView": 0,
      "byteOffset": 6963216,
      "componentType": 5125,
      "count": 338460,
      "type": "SCALAR"
    },
    {
      "bufferView": 2,
      "byteOffset": 9436608,
      "componentType": 5126,
      "count": 65534,
      "max": [
        214.71075439453125,
        -203.500244140625,
        263.2366943359375
      ],
      "min": [
        -522.1572265625,
        -1054.5538330078125,
        -759.05908203125
      ],
      "type": "VEC3"
    },
    {
      "bufferView": 2,
      "byteOffset": 10223016,
      "componentType": 5126,
      "count": 65534,
      "max": [
        0.999977707862854,
        1.0,
        1.0
      ],
      "min": [
        -1.0,
        -0.9970694780349731,
        -0.9859421849250793
      ],
      "type": "VEC3"
    },
    {
      "bufferView": 1,
      "byteOffset": 3145536,
      "componentType": 5126,
      "count": 65534,
      "max": [
        0.9661139845848083,
        0.9980040192604065
      ],
      "min": [
        0.001934999949298799,
        0.0019920000340789557
      ],
      "type": "VEC2"
    },
    {
      "bufferView": 0,
      "byteOffset": 8317056,
      "componentType": 5125,
      "count": 299271,
      "type": "SCALAR"
    },
    {
      "bufferView": 2,
      "byteOffset": 11009424,
      "componentType": 5126,
      "count": 65532,
      "max": [
        217.8427734375,
        -215.95896911621094,
        261.2813720703125
      ],
      "min": [
        -526.939453125,
        -1069.6328125,
        -790.9390869140625
      ],
      "type": "VEC3"
    },
    {
      "bufferView": 2,
      "byteOffset": 11795808,
      "componentType": 5126,
      "count": 65532,
      "max": [
        1.0,
        1.0,
        1.0
      ],
      "min": [
        -0.9999445080757141,
        -1.0,
        -1.0
      ],
      "type": "VEC3"
    },
    {
      "bufferView": 1,
      "byteOffset": 3669808,
      "componentType": 5126,
      "count": 65532,
      "max": [
        0.9694390296936035,
        0.9980069994926453
      ],
      "min": [
        0.001934999949298799,
        0.0019920000340789557
      ],
      "type": "VEC2"
    },
    {
      "bufferView": 0,
      "byteOffset": 9514140,
      "componentType": 5125,
      "count": 243081,
      "type": "SCALAR"
    },
    {
      "bufferView": 2,
      "byteOffset": 12582192,
      "componentType": 5126,
      "count": 65532,
      "max": [
        48.86976623535156,
        -271.7383117675781,
        -79.3658447265625
      ],
      "min": [
        -458.3227233886719,
        -811.3563842773438,
        -509.4171447753906
      ],
      "type": "VEC3"
    },
    {
      "bufferView": 2,
      "byteOffset": 13368576,
      "componentType": 5126,
      "count": 65532,
      "max": [
        0.9968184232711792,
        0.9999083280563354,
        0.999373733997345
      ],
      "min": [
        -0.999983012676239,
        -0.9999091029167175,
        -0.999699056148529
      ],
      "type": "VEC3"
    },
    {
      "bufferView": 1,
      "byteOffset": 4194064,
      "componentType": 5126,
      "count": 65532,
      "max": [
        0.9694390296936035,
        0.9980040192604065
      ],
      "min": [
        0.001934999949298799,
        0.12476199865341187
      ],
      "type": "VEC2"
    },
    {
      "bufferView": 0,
      "byteOffset": 10486464,
      "componentType": 5125,
      "count": 269871,
      "type": "SCALAR"
    },
    {
      "bufferView": 2,
      "byteOffset": 14154960,
      "componentType": 5126,
      "count": 24847,
      "max": [
        217.82635498046875,
        -205.95896911621094,
        263.97119140625
      ],
      "min": [
        -525.612548828125,
        -1050.032958984375,
        -791.8984375
      ],
      "type": "VEC3"
    },
    {
      "bufferView": 2,
      "byteOffset": 14453124,
      "componentType": 5126,
      "count": 24847,
      "max": [
        1.0,
        1.0,
        1.0
      ],
      "min": [
        -1.0,
        -0.9963232278823853,
        -1.0
      ],
      "type": "VEC3"
    },
    {
      "bufferView": 1,
      "byteOffset": 4718320,
      "componentType": 5126,
      "count": 24847,
      "max": [
        0.9694390296936035,
        0.9980080127716064
      ],
      "min": [
        0.001934999949298799,
        0.0035810000263154507
      ],
      "type": "VEC2"
    },
    {
      "bufferView": 0,
      "byteOffset": 11565948,
      "componentType": 5125,
      "count": 58359,
      "type": "SCALAR"
    }
  ],
  "asset": {
    "extras": {
      "author": "Connections XR (https://sketchfab.com/connectionsxr)",
      "license": "CC-BY-4.0 (http://creativecommons.org/licenses/by/4.0/)",
      "source": "https://sketchfab.com/3d-models/red-plush-theater-chair-f24edbf3094b47e29257e6a498249a1c",
      "title": "Red Plush Theater Chair"
    },
    "generator": "Sketchfab-13.74.0",
    "version": "2.0"
  },
  "bufferViews": [
    {
      "buffer": 0,
      "byteLength": 11799384,
      "name": "floatBufferViews",
      "target": 34963
    },
    {
      "buffer": 0,
      "byteLength": 4917096,
      "byteOffset": 11799384,
      "byteStride": 8,
      "name": "floatBufferViews",
      "target": 34962
    },
    {
      "buffer": 0,
      "byteLength": 14751288,
      "byteOffset": 16716480,
      "byteStride": 12,
      "name": "floatBufferViews",
      "target": 34962
    }
  ],
  "buffers": [
    {
      "byteLength": 31467768,
      "uri": "scene.bin"
    }
  ],
  "images": [
    {
      "uri": "textures/material_0_baseColor.png"
    }
  ],
  "materials": [
    {
      "doubleSided": true,
      "name": "material_0",
      "pbrMetallicRoughness": {
        "baseColorTexture": {
          "index": 0
        },
        "metallicFactor": 0.0,
        "roughnessFactor": 0.5139100609756098
      }
    }
  ],
  "meshes": [
    {
      "name": "Object_0",
      "primitives": [
        {
          "attributes": {
            "NORMAL": 1,
            "POSITION": 0,
            "TEXCOORD_0": 2
          },
          "indices": 3,
          "material": 0,
          "mode": 4
        }
      ]
    },
    {
      "name": "Object_1",
      "primitives": [
        {
          "attributes": {
            "NORMAL": 5,
            "POSITION": 4,
            "TEXCOORD_0": 6
          },
          "indices": 7,
          "material": 0,
          "mode": 4
        }
      ]
    },
    {
      "name": "Object_2",
      "primitives": [
        {
          "attributes": {
            "NORMAL": 9,
            "POSITION": 8,
            "TEXCOORD_0": 10
          },
          "indices": 11,
          "material": 0,
          "mode": 4
        }
      ]
    },
    {
      "name": "Object_3",
      "primitives": [
        {
          "attributes": {
            "NORMAL": 13,
            "POSITION": 12,
            "TEXCOORD_0": 14
          },
          "indices": 15,
          "material": 0,
          "mode": 4
        }
      ]
    },
    {
      "name": "Object_4",
      "primitives": [
        {
          "attributes": {
            "NORMAL": 17,
            "POSITION": 16,
            "TEXCOORD_0": 18
          },
          "indices": 19,
          "material": 0,
          "mode": 4
        }
      ]
    },
    {
      "name": "Object_5",
      "primitives": [
        {
          "attributes": {
            "NORMAL": 21,
            "POSITION": 20,
            "TEXCOORD_0": 22
          },
          "indices": 23,
          "material": 0,
          "mode": 4
        }
      ]
    },
    {
      "name": "Object_6",
      "primitives": [
        {
          "attributes": {
            "NORMAL": 25,
            "POSITION": 24,
            "TEXCOORD_0": 26
          },
          "indices": 27,
          "material": 0,
          "mode": 4
        }
      ]
    },
    {
      "name": "Object_7",
      "primitives": [
        {
          "attributes": {
            "NORMAL": 29,
            "POSITION": 28,
            "TEXCOORD_0": 30
          },
          "indices": 31,
          "material": 0,
          "mode": 4
        }
      ]
    },
    {
      "name": "Object_8",
      "primitives": [
        {
          "attributes": {
            "NORMAL": 33,
            "POSITION": 32,
            "TEXCOORD_0": 34
          },
          "indices": 35,
          "material": 0,
          "mode": 4
        }
      ]
    },
    {
      "name": "Object_9",
      "primitives": [
        {
          "attributes": {
            "NORMAL": 37,
            "POSITION": 36,
            "TEXCOORD_0": 38
          },
          "indices": 39,
          "material": 0,
          "mode": 4
        }
      ]
    }
  ],
  "nodes": [
    {
      "children": [
        1
      ],
      "matrix": [
        -0.8168478608131409,
        -0.04697483032941806,
        -0.5749372839927673,
        0.0,
        -0.4984201490879059,
        0.5592371821403502,
        0.6624433398246766,
        0.0,
        0.2904081344604492,
        0.827675759792328,
        -0.4802248775959013,
        0.0,
        0.0,
        0.0,
        0.0,
        1.0
      ],
      "name": "Sketchfab_model"
    },
    {
      "children": [
        2,
        3,
        4,
        5,
        6,
        7,
        8,
        9,
        10,
        11
      ],
      "name": "red_plush_theater_chair_final.obj.cleaner.materialmerger.gles"
    },
    {
      "mesh": 0,
      "name": "Object_2"
    },
    {
      "mesh": 1,
      "name": "Object_3"
    },
    {
      "mesh": 2,
      "name": "Object_4"
    },
    {
      "mesh": 3,
      "name": "Object_5"
    },
    {
      "mesh": 4,
      "name": "Object_6"
    },
    {
      "mesh": 5,
      "name": "Object_7"
    },
    {
      "mesh": 6,
      "name": "Object_8"
    },
    {
      "mesh": 7,
      "name": "Object_9"
    },
    {
      "mesh": 8,
      "name": "Object_10"
    },
    {
      "mesh": 9,
      "name": "Object_11"
    }
  ],
  "samplers": [
    {
      "magFilter": 9729,
      "minFilter": 9987,
      "wrapS": 10497,
      "wrapT": 10497
    }
  ],
  "scene": 0,
  "scenes": [
    {
      "name": "Sketchfab_Scene",
      "nodes": [
        0
      ]
    }
  ],
  "textures": [
    {
      "sampler": 0,
      "source": 0
    }
  ]
}
